# xmcd
#
# Track frame offsets: 
#        150
#        27179
#        58323
#        78682
#        103232
#        136678
#        157712
#        191274
#        233792
#
# Disc length: 3543 seconds
#
# Revision: 1
# Processed by: cddbd v1.5.1PL2 Copyright (c) Steve Scherf et al.
# Submitted via: ExactAudioCopy v0.95b3
#
DISCID=6b0dd509
DTITLE=Ahmad Jamal - After Fajr
DYEAR=2005
DGENRE=Jazz
TTITLE0=I'm Old Fashioned
TTITLE1=After Fajr
TTITLE2=Milan
TTITLE3=Yours Is My Heart Alone
TTITLE4=Swahililand
TTITLE5=My Heart Stood Still
TTITLE6=Time On My Hands
TTITLE7=Topsy Turvy
TTITLE8=Manhattan Reflections
EXTD=YEAR: 2005
EXTT0=
EXTT1=
EXTT2=
EXTT3=
EXTT4=
EXTT5=
EXTT6=
EXTT7=
EXTT8=
PLAYORDER=
